# xmcd CD database file
#
# Track frame offsets:
#	150
#	24210
#	74127
#	92201
#	153918
#	200168
#	214494
#	236336
#	251682
#	296907
#	315344
#
# Disc length: 4403 seconds
#
# Revision: 1
# Processed by: cddbd v1.5.1PL0 Copyright (c) Steve Scherf et al.
# Submitted via: CDex 1.50
#
DISCID=a411310b
DTITLE=Bran - Tír na nÓg - Tündérzene (Disk 2)
DYEAR=1999
DGENRE=
TTITLE0=Niamh bolyongásai (Mese)
TTITLE1=Dr Gilbert (Mese)
TTITLE2=Tamm kentan - Tamm kreiz - Dr Gilbert
TTITLE3=A Vörös Admirális pillangó (Mese) - Butterfly
TTITLE4=Plumia Floor (Mese)
TTITLE5=The Flower of Magherally
TTITLE6=Kedvesem táncol (Mese)
TTITLE7=Tania is Dancing
TTITLE8=A larmori erdei ember (Mese)
TTITLE9=Larmor - Octomber - Laridé á six temps
TTITLE10=Éiníní
EXTD=YEAR: 1999
EXTT0=
EXTT1=
EXTT2=
EXTT3=
EXTT4=
EXTT5=
EXTT6=
EXTT7=
EXTT8=
EXTT9=
EXTT10=
PLAYORDER=
